<?xml version="1.0" ?><svg data-name="Layer 1" id="Layer_1" viewBox="0 0 508.33 508.36" xmlns="http://www.w3.org/2000/svg"><defs><style>.cls-1{fill:#bd081c;fill-rule:evenodd;}.cls-2{fill:#fff;}</style></defs><title/><path class="cls-1" d="M485,29.72c11.45,15.13,16.61,40.21,19.15,70.7,3.36,45.5,4.71,100.1,6,156.52-1.67,57.47-2.35,115.43-6,156.52-2.88,31.54-9,52.66-19.22,65.47-13,12.79-37.94,23.59-73.5,26.15-43.25,3.69-96.61,3.65-155.48,5.1-65.44-1.12-109.82-.64-156.38-5.08-36.32-2.52-60.08-13.19-74.7-26.07-10.83-14.54-14-30-17-66.24-3.75-41.85-4.58-98.56-6-155.54C4,200.57,4.13,143.44,7.9,100.74,10.43,67.05,14.42,44.4,24.65,30,39,17.77,63.48,11.69,100,8.69c50-5.85,102.06-7,155.88-6.87,55.39.09,108.56,1.67,156,6.34,32,2.56,58.48,8.07,73.07,21.56Z" transform="translate(-1.83 -1.82)"/><path class="cls-2" d="M257,99c-81.71,0-122.91,58.58-122.91,107.44,0,29.58,11.2,55.89,35.21,65.69,3.94,1.62,7.47.06,8.61-4.3.79-3,2.68-10.62,3.51-13.8,1.15-4.31.7-5.82-2.48-9.59-6.92-8.16-11.35-18.73-11.35-33.72,0-43.46,32.52-82.36,84.67-82.36,46.18,0,71.56,28.22,71.56,65.9,0,49.59-21.95,91.45-54.52,91.45-18,0-31.45-14.87-27.15-33.13,5.17-21.79,15.18-45.29,15.18-61,0-14.07-7.56-25.81-23.19-25.81-18.39,0-33.17,19-33.17,44.51,0,16.23,5.48,27.21,5.48,27.21s-18.82,79.75-22.12,93.71c-6.57,27.82-1,61.9-.51,65.34a2.29,2.29,0,0,0,4.09,1c1.69-2.22,23.61-29.26,31-56.29,2.11-7.64,12.09-47.27,12.09-47.27,6,11.4,23.44,21.42,42,21.42,55.28,0,92.79-50.39,92.79-117.85C365.89,146.51,322.69,99,257,99Z" transform="translate(-1.83 -1.82)"/></svg>